PathFileType	4	(X/Y/Z)	C:\Users\italobelli\Desktop\GitHub\PTbot_officialCBL\Personal_Results\ABD02_noisy1.trc
DataRate	CameraRate	NumFrames	NumMarkers	Units	OrigDataRate	OrigDataStartFrame	OrigNumFrames
106.125000	106.125000	17	9	m	106.125000	638	850
Frame#	Time		gu		centelbow		EpL		centpxt8		centijc7		ij		ts		aa		ai
			X1	Y1	Z1	X2	Y2	Z2	X3	Y3	Z3	X4	Y4	Z4	X5	Y5	Z5	X6	Y6	Z6	X7	Y7	Z7	X8	Y8	Z8	X9	Y9	Z9

638	6.0024	-0.11264	0.017802	0.15993	-0.11783	-0.2142	0.24243	-0.13193	-0.20009	0.26775	-0.046816	-0.15316	-0.008669	-0.046816	0.031938	-0.008669	0	0	0	-0.12279	0.026861	0.025401	-0.14812	0.046413	0.1403	-0.12252	-0.084012	0.049746
639	6.0118	-0.11266	0.017685	0.15993	-0.11791	-0.21465	0.24099	-0.13186	-0.20077	0.2665	-0.046816	-0.15316	-0.008669	-0.046816	0.031938	-0.008669	0	0	0	-0.12288	0.026926	0.025442	-0.1481	0.046384	0.14038	-0.12276	-0.083971	0.049685
640	6.0212	-0.11268	0.01757	0.15992	-0.11797	-0.21509	0.23954	-0.13175	-0.20143	0.26525	-0.046816	-0.15316	-0.008669	-0.046816	0.031938	-0.008669	0	0	0	-0.12297	0.026989	0.025482	-0.14808	0.046357	0.14047	-0.123	-0.083929	0.049624
641	6.0306	-0.1127	0.017459	0.15992	-0.11801	-0.21552	0.23808	-0.13161	-0.20209	0.26398	-0.046816	-0.15316	-0.008669	-0.046816	0.031938	-0.008669	0	0	0	-0.12306	0.027052	0.025521	-0.14806	0.046332	0.14055	-0.12324	-0.083888	0.049565
642	6.04	-0.11273	0.017351	0.15992	-0.11804	-0.21594	0.23662	-0.13144	-0.20273	0.2627	-0.046816	-0.15316	-0.008669	-0.046816	0.031938	-0.008669	0	0	0	-0.12316	0.027113	0.02556	-0.14805	0.04631	0.14063	-0.12349	-0.083848	0.049507
643	6.0495	-0.11275	0.017245	0.15991	-0.11804	-0.21636	0.23514	-0.13125	-0.20335	0.26141	-0.046816	-0.15316	-0.008669	-0.046816	0.031938	-0.008669	0	0	0	-0.12325	0.027173	0.025599	-0.14803	0.04629	0.14071	-0.12373	-0.083808	0.049451
644	6.0589	-0.11277	0.017142	0.15991	-0.11803	-0.21677	0.23366	-0.13104	-0.20397	0.26011	-0.046816	-0.15316	-0.008669	-0.046816	0.031938	-0.008669	0	0	0	-0.12335	0.027233	0.025637	-0.14801	0.046272	0.14078	-0.12397	-0.083769	0.049396
645	6.0683	-0.1128	0.017042	0.1599	-0.11801	-0.21717	0.23218	-0.1308	-0.20457	0.25881	-0.046816	-0.15316	-0.008669	-0.046816	0.031938	-0.008669	0	0	0	-0.12345	0.027291	0.025674	-0.148	0.046256	0.14086	-0.12422	-0.08373	0.049342
646	6.0777	-0.11283	0.016945	0.1599	-0.11797	-0.21756	0.2307	-0.13054	-0.20516	0.25751	-0.046816	-0.15316	-0.008669	-0.046816	0.031938	-0.008669	0	0	0	-0.12355	0.027348	0.025711	-0.14798	0.046242	0.14093	-0.12446	-0.083691	0.049289
647	6.0872	-0.11285	0.01685	0.15989	-0.11791	-0.21794	0.22922	-0.13026	-0.20573	0.2562	-0.046816	-0.15316	-0.008669	-0.046816	0.031938	-0.008669	0	0	0	-0.12365	0.027405	0.025747	-0.14796	0.046229	0.14101	-0.12471	-0.083654	0.049237
648	6.0966	-0.11288	0.016758	0.15989	-0.11785	-0.21831	0.22774	-0.12995	-0.2063	0.25489	-0.046816	-0.15316	-0.008669	-0.046816	0.031938	-0.008669	0	0	0	-0.12375	0.02746	0.025783	-0.14795	0.046219	0.14108	-0.12495	-0.083616	0.049186
649	6.106	-0.11291	0.016667	0.15988	-0.11777	-0.21868	0.22626	-0.12963	-0.20685	0.25359	-0.046816	-0.15316	-0.008669	-0.046816	0.031938	-0.008669	0	0	0	-0.12385	0.027514	0.025818	-0.14793	0.04621	0.14115	-0.12519	-0.083579	0.049137
650	6.1154	-0.11294	0.01658	0.15987	-0.11768	-0.21903	0.22479	-0.1293	-0.20738	0.25228	-0.046816	-0.15316	-0.008669	-0.046816	0.031938	-0.008669	0	0	0	-0.12396	0.027567	0.025853	-0.14791	0.046203	0.14123	-0.12544	-0.083543	0.049088
651	6.1249	-0.11297	0.016494	0.15986	-0.11758	-0.21938	0.22332	-0.12894	-0.20791	0.25098	-0.046816	-0.15316	-0.008669	-0.046816	0.031938	-0.008669	0	0	0	-0.12406	0.02762	0.025887	-0.1479	0.046197	0.1413	-0.12568	-0.083507	0.04904
652	6.1343	-0.11301	0.01641	0.15986	-0.11747	-0.21972	0.22186	-0.12858	-0.20842	0.24968	-0.046816	-0.15316	-0.008669	-0.046816	0.031938	-0.008669	0	0	0	-0.12417	0.027671	0.025921	-0.14788	0.046193	0.14136	-0.12593	-0.083472	0.048994
653	6.1437	-0.11304	0.016329	0.15985	-0.11735	-0.22005	0.22041	-0.12819	-0.20892	0.2484	-0.046816	-0.15316	-0.008669	-0.046816	0.031938	-0.008669	0	0	0	-0.12427	0.027721	0.025954	-0.14786	0.04619	0.14143	-0.12617	-0.083437	0.048948
654	6.1531	-0.11307	0.016249	0.15984	-0.11722	-0.22037	0.21897	-0.1278	-0.2094	0.24711	-0.046816	-0.15316	-0.008669	-0.046816	0.031938	-0.008669	0	0	0	-0.12438	0.02777	0.025987	-0.14785	0.046188	0.1415	-0.12641	-0.083402	0.048903
